# xmcd
#
# Track frame offsets: 
#        187
#        11915
#        22825
#        35442
#        53260
#        70307
#        82525
#        92837
#        108580
#        118872
#        131382
#
# Disc length: 1973 seconds
#
# Revision: 3
# Processed by: cddbd v1.5.2PL0 Copyright (c) Steve Scherf et al.
# Submitted via: ExactAudioCopy v0.99pb5
#
DISCID=7e07b30b
DTITLE=Buddy Guy - Left My Blues In San Francisco
DYEAR=1967
DGENRE=Blues
TTITLE0=Keep It To Myself
TTITLE1=Crazy Love
TTITLE2=I Suffer With The Blues
TTITLE3=When My Left Eye Jumps
TTITLE4=Buddy's Groove
TTITLE5=Goin' Home
TTITLE6=She Suits Me To A Tee
TTITLE7=Leave My Girl Alone
TTITLE8=Too Many Ways
TTITLE9=Mother-In-Law
TTITLE10=Every Girl I See
EXTD=YEAR: 1967
EXTT0=
EXTT1=
EXTT2=
EXTT3=
EXTT4=
EXTT5=
EXTT6=
EXTT7=
EXTT8=
EXTT9=
EXTT10=
PLAYORDER=
